<?xml version="1.0" encoding="UTF-8" standalone="no"?>
<!DOCTYPE svg PUBLIC "-//W3C//DTD SVG 1.1//EN" "http://www.w3.org/Graphics/SVG/1.1/DTD/svg11.dtd">
<svg width="100%" height="100%" viewBox="0 0 2000 2000" version="1.1" xmlns="http://www.w3.org/2000/svg" xmlns:xlink="http://www.w3.org/1999/xlink" xml:space="preserve" xmlns:serif="http://www.serif.com/" style="fill-rule:evenodd;clip-rule:evenodd;stroke-linejoin:round;stroke-miterlimit:2;">
    <g transform="matrix(6.4,0,0,6.4,0,0)">
        <path d="M312.5,156.25C312.5,211.75 289.875,254.188 246.25,281.938C222.063,297.375 187.063,312.5 156.25,312.5C102.312,312.5 67.25,303.937 39.187,262.5C22.314,237.5 0,188.75 0,156.25C0,113.437 11,68.375 38.875,40.125C66.75,11.875 112.75,0 156.25,0C215.625,0 261.063,33.125 287.5,81.938C299.25,104 312.5,129.312 312.5,156.25Z" style="fill:rgb(248,177,149);fill-rule:nonzero;"/>
    </g>
    <g transform="matrix(6.4,0,0,6.4,0,0)">
        <path d="M165.036,76.021C164.848,76.021 164.662,76.045 164.473,76.048C165.282,75.422 166.051,74.745 166.774,74.021C170.607,70.187 173.483,64.808 170.738,62.061C170.252,61.576 169.375,61 167.947,61C165.392,61 161.88,62.925 158.78,66.026C158.287,66.519 157.81,67.039 157.36,67.575L157.36,66.355C157.36,65.366 156.547,64.553 155.558,64.553C154.569,64.553 153.756,65.366 153.756,66.355L153.756,74.722C153.731,75.016 153.731,75.311 153.756,75.605L153.756,77.153C151.432,76.404 149.005,76.023 146.563,76.023L146.56,76.023C140.311,76.006 134.309,78.493 129.902,82.923C125.47,87.33 122.983,93.334 123,99.584C123,111.141 129.426,132.998 153.746,133C154.237,133 154.727,132.972 155.206,132.913L157.852,133C182.172,133 188.598,111.142 188.598,99.584C188.597,86.59 178.028,76.021 165.036,76.021ZM161.328,68.572C163.934,65.966 166.631,64.602 167.947,64.602C168.075,64.602 168.149,64.614 168.178,64.61C168.394,65.248 167.55,68.147 164.228,71.472C161.621,74.078 158.926,75.442 157.611,75.442C157.504,75.442 157.431,75.432 157.398,75.432C157.39,75.432 157.384,75.432 157.38,75.434C157.36,75.376 157.36,75.28 157.358,75.186L157.358,75.043C157.443,73.993 158.454,71.447 161.328,68.573L161.328,68.572ZM157.911,129.395L155.179,129.304L155.119,129.303C155.038,129.303 154.956,129.309 154.876,129.32C154.511,129.37 154.13,129.395 153.746,129.395C132.32,129.392 126.604,110.655 126.604,99.583C126.604,94.251 128.68,89.239 132.449,85.47C136.218,81.701 141.229,79.626 146.562,79.626C157.566,79.626 166.519,88.579 166.519,99.583C166.519,102.897 166.321,106.283 165.945,109.374C165.825,110.355 166.534,111.261 167.515,111.381C167.592,111.391 167.67,111.396 167.748,111.396C168.652,111.396 169.421,110.709 169.522,109.811C169.914,106.576 170.122,103.04 170.122,99.583C170.122,91.594 166.125,84.521 160.027,80.259C161.651,79.839 163.328,79.626 165.037,79.626C176.041,79.626 184.993,88.579 184.993,99.583C184.993,110.654 179.277,129.393 157.911,129.395Z" style="fill:white;fill-rule:nonzero;"/>
    </g>
    <g transform="matrix(6.4,0,0,6.4,0,0)">
        <path d="M56.091,162.078C56.157,165.97 56.157,199.016 56.157,201.721C56.157,202.711 56.289,202.908 57.279,202.908C59.521,202.908 59.521,202.974 61.764,202.908C62.226,202.908 63.017,202.908 63.414,202.71C63.874,202.512 63.611,186.946 63.611,186.088C63.611,185.165 65.458,185.362 65.986,185.362C77.001,185.362 80.036,177.447 80.036,170.719C80.036,164.651 78.848,153.437 65.128,153.437C62.753,153.437 60.313,153.503 58.004,153.503C57.477,153.503 56.817,153.437 56.355,153.767C55.828,154.163 56.025,160.033 56.091,162.078ZM63.677,175.666C63.677,174.216 63.611,165.574 63.677,162.936C63.677,162.54 63.611,162.078 63.677,161.616C63.875,160.891 64.732,160.891 65.392,160.956C69.218,161.221 71.394,164.585 71.724,168.146C71.988,170.719 71.658,174.545 69.811,176.59C68.492,177.975 66.777,178.832 64.534,178.832C64.073,178.832 63.611,178.305 63.611,177.842C63.611,177.117 63.611,176.392 63.677,175.666ZM87.921,189.386L87.855,189.386C87.855,191.036 87.789,192.75 87.855,194.466C87.921,196.576 88.053,198.686 88.185,200.797C88.185,201.523 88.383,201.721 89.042,201.853C90.427,202.183 91.747,202.248 93.132,202.248C96.694,202.117 100.256,202.38 103.817,202.248C105.269,202.183 105.928,202.314 107.379,202.051C108.699,201.787 109.16,201.061 109.16,199.082C109.028,197.829 109.094,197.302 109.094,195.784C109.094,193.608 107.577,192.882 106.258,192.948C105.335,193.014 100.915,192.882 99.134,192.882C96.166,192.948 96.628,193.344 96.628,190.244C96.628,187.737 96.694,184.505 96.694,181.933C96.694,180.547 96.826,180.086 98.144,180.086L106.39,180.086C107.71,180.283 108.633,179.36 108.633,177.975C108.633,176.59 108.764,176.524 108.764,175.139L108.567,173.159C108.435,172.039 108.039,171.643 106.917,171.643C106.192,171.643 105.467,171.709 104.741,171.775C101.905,171.972 100.585,171.577 97.815,171.775C96.892,171.775 96.76,171.643 96.694,170.785C96.43,168.213 96.694,165.376 96.957,162.804C97.023,161.748 97.287,161.551 98.277,161.484L107.577,161.419C108.83,161.287 109.227,161.353 109.16,160.099C109.028,158.187 109.226,156.208 109.028,154.295C108.896,153.24 108.567,153.042 107.379,153.042C105.4,153.108 104.939,153.108 102.959,153.24C100.981,153.305 93.066,153.305 91.153,153.305C88.383,153.305 88.185,153.108 88.119,156.472C87.987,159.11 88.053,161.814 88.053,164.519C88.053,169.136 87.789,185.692 87.921,189.386ZM123.048,202.38C123.246,202.446 123.84,202.446 124.434,202.446C125.753,202.446 126.148,197.697 126.28,196.708C126.346,195.916 126.544,195.85 127.204,195.718C130.502,195.323 132.151,195.586 135.449,195.652C136.175,195.652 136.57,195.982 136.769,196.576L137.229,198.093C137.626,199.214 137.956,200.599 138.351,201.721C138.615,202.512 138.681,202.446 139.473,202.446C140.528,202.446 144.353,202.446 145.475,202.38C146.992,202.38 145.937,199.28 145.739,198.753C145.145,196.906 145.013,194.993 144.419,193.146C144.156,192.354 136.636,156.669 136.306,154.691C135.845,153.503 136.241,153.437 135.186,153.437C132.942,153.437 130.568,153.569 128.259,153.437C127.336,153.437 127.402,153.701 127.269,154.691C127.138,155.614 124.763,166.101 123.839,170.455C122.653,175.93 121.597,181.207 120.278,186.615C119.816,188.529 116.65,202.315 117.046,202.38C117.244,202.512 117.574,202.446 117.837,202.446C119.487,202.446 121.004,202.446 123.048,202.38ZM131.69,187.407L130.304,187.407C128.457,187.407 128.391,187.407 128.853,185.494C129.183,184.044 130.963,176.194 131.359,174.281C131.425,174.149 131.557,174.017 131.623,174.017C131.755,174.017 131.887,174.149 131.953,174.215C132.217,175.007 132.481,176.985 132.745,177.777C133.338,180.283 133.734,182.394 134.328,185.099C134.921,187.473 134.658,187.473 133.47,187.473C132.877,187.473 132.283,187.407 131.69,187.407ZM180.141,161.221C180.207,159.044 180.141,157.263 180.141,155.152C180.141,152.712 175.721,152.976 174.138,153.042C167.081,153.503 160.353,157.989 157.12,164.123C156.217,165.88 155.53,167.74 155.076,169.663C153.954,174.149 153.888,178.898 154.416,183.45C154.878,187.737 155.999,192.025 158.638,195.454C163.188,201.457 171.566,203.568 178.756,202.446C179.086,202.38 179.416,202.314 179.679,202.116C179.877,201.985 180.075,201.721 180.075,201.456L180.273,197.697C180.339,196.51 180.273,196.576 180.273,195.389C180.273,193.805 176.975,194.993 174.93,194.993C172.951,194.993 170.84,194.927 169.06,194.003C165.893,192.223 164.112,188.661 163.123,185.297C162.002,181.669 161.738,177.777 162.397,174.083C163.189,169.268 165.497,163.727 170.577,162.078C173.479,161.088 176.579,161.418 179.481,161.748C179.877,161.814 180.141,161.551 180.141,161.221ZM207.881,183.384C207.881,186.352 207.815,192.222 207.749,192.222L207.749,201.193C207.749,201.589 207.683,202.248 207.881,202.644C208.079,203.106 208.672,202.974 209.068,202.908C210.981,202.71 212.894,202.974 214.807,202.908C216.917,202.842 216.257,199.61 216.192,198.291C215.928,195.389 216.258,173.291 216.258,165.376C216.258,161.814 216.126,154.493 215.928,154.163C215.598,153.569 214.741,153.437 214.081,153.371C212.63,153.108 211.904,153.503 209.728,153.503C207.552,153.503 207.419,154.163 207.419,156.472L207.419,158.45C207.353,160.033 207.617,171.115 207.617,172.896C207.617,173.753 207.551,173.819 206.693,173.819C204.517,173.753 201.483,174.017 199.24,173.819C196.008,173.555 196.733,173.819 196.535,170.851L196.535,170.455C196.535,166.234 197.063,155.285 196.865,154.625C196.535,153.635 196.14,153.437 195.282,153.503C193.303,153.635 191.259,153.305 189.28,153.437C188.62,153.503 188.422,153.701 188.224,154.361C188.158,154.691 188.092,155.021 188.092,155.351C188.092,157.395 188.224,160.165 188.29,162.211L188.092,201.325C188.092,203.04 189.61,202.842 192.974,202.842C196.074,202.842 196.865,203.568 196.865,199.874C196.865,196.906 196.667,193.146 196.733,190.178C196.799,187.869 196.733,185.626 196.733,183.318C196.799,182.46 196.997,182.196 197.789,182.196C200.691,182.13 203.857,182.196 206.759,182.196C207.683,182.196 207.881,182.328 207.881,183.384ZM236.082,182.724L236.148,201.984C236.148,202.71 236.808,202.974 237.336,202.974L243.404,202.974C244.525,202.974 244.525,201.984 244.525,201.523C244.525,195.323 244.525,188.661 244.789,182.394C244.789,181.339 244.921,180.349 245.449,179.36C246.042,178.37 254.815,158.78 255.805,155.548C255.937,155.086 256.2,154.295 255.739,153.899C254.947,153.174 251.781,153.503 249.869,153.503C248.681,153.503 247.955,153.965 247.428,155.153C245.185,160.363 242.876,165.508 240.568,170.719C240.37,171.181 240.106,171.181 239.776,170.719C239.051,169.532 234.367,157.923 233.642,155.35C233.51,155.02 233.444,154.69 233.246,154.427C232.323,153.371 230.806,153.503 229.552,153.503C227.903,153.503 226.716,153.569 225.132,153.569C224.077,153.569 224.012,154.559 224.209,155.416C224.275,155.746 224.473,156.076 224.605,156.34C227.112,161.089 234.169,176.788 235.423,179.756C236.083,181.141 236.016,181.206 236.083,182.724L236.082,182.724ZM66.984,250.951C67.736,250.951 70.494,251.001 71.044,250.901C71.396,250.801 71.596,249.898 71.697,249.597C71.997,248.645 72.197,247.642 72.449,246.69C73,244.183 78.565,223.127 80.52,215.256C80.62,214.906 80.72,214.504 80.62,214.153C80.47,213.401 80.019,213.301 79.417,213.301C78.264,213.351 77.111,213.301 75.957,213.301C74.654,213.301 74.153,213.451 73.752,214.905C71.797,221.623 70.493,229.645 68.689,236.462L68.388,237.265C68.388,237.315 68.188,237.265 68.188,237.265C68.087,237.014 67.937,236.813 67.886,236.563C66.082,229.393 63.124,215.206 62.622,213.853C62.322,213.05 61.57,213.301 60.868,213.301C59.464,213.301 58.161,213.351 56.807,213.351C56.306,213.401 55.955,213.601 56.005,214.103C56.005,214.504 56.556,216.71 56.656,217.311L57.208,219.417C57.558,221.021 58.06,223.027 58.411,224.581C60.316,232.552 62.371,240.523 64.628,248.394C64.828,249.096 64.978,250.299 65.48,250.7C65.881,251.051 66.533,250.9 66.984,250.951ZM86.664,240.624L86.614,240.624C86.614,241.877 86.564,243.18 86.614,244.484C86.664,246.088 86.764,247.692 86.864,249.297C86.864,249.848 87.014,249.999 87.516,250.099C88.569,250.349 89.572,250.399 90.624,250.399C93.332,250.299 96.039,250.499 98.746,250.399C99.849,250.349 100.35,250.449 101.453,250.249C102.456,250.049 102.807,249.497 102.807,247.993C102.707,247.041 102.757,246.64 102.757,245.486C102.757,243.832 101.604,243.281 100.601,243.331C99.899,243.381 96.541,243.281 95.187,243.281C92.931,243.331 93.282,243.631 93.282,241.275C93.282,239.37 93.332,236.914 93.332,234.958C93.332,233.906 93.432,233.555 94.435,233.555L100.701,233.555C101.704,233.705 102.406,233.003 102.406,231.95C102.406,230.897 102.506,230.848 102.506,229.795L102.356,228.291C102.256,227.438 101.955,227.138 101.102,227.138C100.551,227.138 99.999,227.188 99.448,227.238C97.292,227.388 96.29,227.088 94.184,227.238C93.482,227.238 93.382,227.138 93.332,226.486C93.132,224.531 93.332,222.375 93.532,220.42C93.582,219.618 93.782,219.467 94.535,219.417L101.604,219.367C102.556,219.267 102.857,219.317 102.807,218.364C102.707,216.91 102.857,215.406 102.707,213.953C102.607,213.15 102.356,213 101.453,213C99.949,213.05 99.598,213.05 98.094,213.15C96.59,213.2 90.574,213.2 89.12,213.2C87.015,213.2 86.864,213.05 86.814,215.607C86.714,217.612 86.764,219.667 86.764,221.723C86.764,225.233 86.564,237.816 86.664,240.623L86.664,240.624ZM130.107,214.454C130.257,215.156 130.157,248.544 130.157,249.397C130.157,250.901 129.606,250.851 128.603,250.851C127.099,250.851 124.993,251.101 124.543,250.601C124.141,250.249 116.721,232.351 115.669,230.096C115.569,229.895 115.318,229.394 115.117,229.494C114.867,229.594 114.967,229.945 114.967,230.146C114.917,231.9 115.217,247.041 115.217,249.447C115.217,250.65 115.167,250.851 114.165,250.851L111.658,250.851C111.006,250.851 110.204,250.801 109.552,250.901C109.051,250.901 108.8,250.751 108.75,250.249L108.75,246.289C108.85,242.077 108.75,217.111 108.75,215.256C108.75,213.652 109.201,213.351 110.806,213.351C111.909,213.301 113.012,213.301 114.114,213.301C114.465,213.301 114.666,213.351 114.866,213.802C116.22,216.961 121.986,231.449 122.888,233.204C123.038,233.554 123.59,234.958 123.891,235.109L123.941,235.109C124.141,234.909 124.091,233.906 124.091,233.605C124.091,232.853 123.69,215.256 123.69,214.905C123.69,214.404 123.54,213.953 123.79,213.602C123.94,213.402 124.592,213.351 124.843,213.301C126.247,213.201 127.901,213.351 129.305,213.301C130.007,213.301 129.957,213.802 130.107,214.454ZM142.517,245.436C142.567,246.991 142.567,248.545 142.617,250.099C142.617,250.801 142.668,250.901 143.37,250.901L147.882,250.901C148.834,250.901 148.634,249.297 148.584,248.444L148.734,220.37C148.734,219.618 148.984,219.367 149.987,219.367L154.399,219.367C155.452,219.367 155.201,217.562 155.201,216.309C155.201,215.206 155.602,213.301 154.399,213.301C153.547,213.301 145.375,213.301 142.016,213.351C140.362,213.351 139.008,213.301 137.354,213.301C136.101,213.301 136.151,214.303 136.151,216.509C136.151,217.913 136.101,219.317 137.304,219.317C138.006,219.317 140.864,219.317 141.665,219.367C142.167,219.367 142.518,219.517 142.618,220.069C142.618,220.219 142.668,220.369 142.668,220.52C142.668,224.13 142.418,240.924 142.518,245.436L142.517,245.436ZM161.195,221.523C161.195,226.586 161.245,231.7 161.345,236.713C161.395,239.771 161.345,243.23 162.799,246.038C164.654,249.648 168.765,251.252 172.726,251.001C175.433,250.801 177.939,250.099 179.895,248.093C183.203,244.534 182.552,238.969 182.602,234.407C182.702,227.84 182.852,221.723 182.852,215.106C182.852,214.003 182.502,213.401 181.399,213.351C180.045,213.301 178.691,213.351 177.338,213.451C176.786,213.451 176.335,213.953 176.335,214.554C176.385,219.367 176.485,224.23 176.435,229.093C176.385,233.253 176.937,237.866 175.383,241.827C174.781,243.281 173.427,244.384 171.823,244.384C167.813,244.284 167.963,239.521 167.813,236.714C167.512,230.597 167.963,224.33 168.113,218.214C168.113,217.061 168.113,215.908 168.163,214.754C168.213,214.154 168.313,213.401 167.512,213.351L166.609,213.351C165.356,213.451 164.103,213.301 162.849,213.351C161.646,213.451 161.245,213.802 161.245,215.005C161.245,217.161 161.195,219.367 161.195,221.523ZM195.012,247.141C195.012,245.837 195.012,237.616 195.062,236.964C195.112,236.814 195.212,236.513 195.413,236.513C195.614,236.513 195.714,236.613 195.764,236.763C197.77,240.673 199.524,244.584 201.329,248.394C201.579,248.946 202.131,250.55 202.282,250.7C202.482,251.001 202.833,250.9 203.134,250.9L208.649,250.951C209.3,250.951 209.451,250.55 209.3,249.999C208.9,248.495 206.042,243.18 205.39,241.877C204.939,240.874 201.93,235.059 201.83,234.607C201.73,234.407 202.482,234.057 202.583,233.906C204.989,231.75 207.145,229.544 207.596,226.186C208.097,222.876 207.346,219.266 205.189,216.61C203.535,214.654 201.379,213.501 198.823,213.35C197.268,213.25 195.764,213.401 194.21,213.35C192.857,213.3 191.904,213.3 190.2,213.3C189.397,213.3 188.896,213.752 188.846,214.604L188.846,215.206C188.746,219.066 188.846,222.926 188.896,226.736C188.896,232.552 188.796,247.893 188.796,250.099C188.796,250.751 188.896,250.901 189.498,250.901C189.848,250.901 190.25,250.951 190.601,250.951C192.004,250.951 192.857,250.901 194.311,250.901C195.413,250.901 195.012,249.096 195.012,247.141ZM195.012,227.589L195.062,222.525C195.112,221.773 194.862,220.269 195.564,219.718C196.516,219.016 198.472,219.718 199.324,220.319C201.831,222.024 201.63,226.235 200.276,228.592C199.625,229.694 198.522,230.346 197.268,230.697C196.516,230.897 195.113,231.148 195.062,229.945C195.062,229.143 195.012,227.589 195.012,227.589ZM215.344,240.624L215.294,240.624C215.294,241.877 215.244,243.18 215.294,244.484C215.344,246.088 215.444,247.692 215.544,249.297C215.544,249.848 215.694,249.999 216.196,250.099C217.249,250.349 218.252,250.399 219.305,250.399C222.012,250.299 224.719,250.499 227.426,250.399C228.529,250.349 229.03,250.449 230.133,250.249C231.136,250.049 231.487,249.497 231.487,247.993C231.387,247.041 231.437,246.64 231.437,245.486C231.437,243.832 230.284,243.281 229.281,243.331C228.579,243.381 225.221,243.281 223.867,243.281C221.611,243.331 221.962,243.631 221.962,241.275C221.962,239.37 222.012,236.914 222.012,234.958C222.012,233.906 222.112,233.555 223.115,233.555L229.381,233.555C230.384,233.705 231.086,233.003 231.086,231.95C231.086,230.897 231.186,230.848 231.186,229.795L231.036,228.291C230.936,227.438 230.635,227.138 229.782,227.138C229.231,227.138 228.68,227.188 228.128,227.238C225.972,227.388 224.97,227.088 222.864,227.238C222.162,227.238 222.062,227.138 222.012,226.486C221.812,224.531 222.012,222.375 222.212,220.42C222.262,219.618 222.463,219.467 223.215,219.417L230.284,219.367C231.236,219.267 231.537,219.317 231.487,218.364C231.387,216.91 231.537,215.406 231.387,213.953C231.287,213.15 231.036,213 230.133,213C228.629,213.05 228.278,213.05 226.774,213.15C225.27,213.2 219.254,213.2 217.801,213.2C215.695,213.2 215.545,213.05 215.494,215.607C215.394,217.612 215.444,219.667 215.444,221.723C215.444,225.233 215.244,237.816 215.344,240.623L215.344,240.624ZM247.658,213.05C246.705,213.1 245.752,213.25 244.8,213.551C242.71,214.278 240.903,215.647 239.636,217.461C238.533,219.116 238.082,221.071 237.932,223.027C237.832,224.531 237.982,226.085 238.684,227.438C239.436,228.892 240.739,230.146 241.842,231.348C242.845,232.402 243.847,233.454 244.95,234.407C245.953,235.36 247.106,236.112 248.109,237.114C249.563,238.568 250.114,241.877 249.061,243.682C247.808,245.687 244.851,245.988 242.895,245.336C241.892,244.986 240.99,244.233 240.138,243.632C239.636,243.281 239.035,243.13 238.684,243.732C238.484,244.032 238.383,244.384 238.283,244.684C237.932,245.938 237.48,247.091 237.43,248.444C237.38,249.999 240.338,250.45 241.441,250.7C246.354,251.853 252.27,250.951 254.827,246.088C255.326,245.091 255.68,244.027 255.879,242.93C255.929,242.529 255.979,242.178 255.979,241.777C256.18,238.568 254.877,235.861 252.922,233.454C250.816,230.848 248.159,229.043 245.702,226.787C244.198,225.383 243.647,223.177 244.098,221.172C244.549,219.016 247.006,218.465 248.861,219.016C249.412,219.166 249.863,219.417 250.365,219.718C250.665,219.868 250.966,220.068 251.367,220.068C252.069,220.119 252.17,219.568 252.32,219.016C252.67,217.763 253.272,216.76 253.523,215.556C253.773,214.203 252.671,213.953 251.568,213.602C250.264,213.251 249.011,213 247.658,213.05Z" style="fill:white;fill-rule:nonzero;"/>
    </g>
</svg>
