<?xml version="1.0" encoding="UTF-8" standalone="no"?>
<!DOCTYPE svg PUBLIC "-//W3C//DTD SVG 1.1//EN" "http://www.w3.org/Graphics/SVG/1.1/DTD/svg11.dtd">
<svg width="100%" height="100%" viewBox="0 0 1500 1636" version="1.1" xmlns="http://www.w3.org/2000/svg" xmlns:xlink="http://www.w3.org/1999/xlink" xml:space="preserve" xmlns:serif="http://www.serif.com/" style="fill-rule:evenodd;clip-rule:evenodd;stroke-linejoin:round;stroke-miterlimit:2;">
    <g transform="matrix(22.7273,0,0,22.7222,-2795.45,-1522.39)">
        <path d="M165.036,82.021C164.848,82.021 164.662,82.045 164.474,82.048C165.252,81.447 166.025,80.77 166.774,80.021C170.607,76.187 173.483,70.808 170.738,68.061C170.252,67.577 169.376,67 167.947,67C165.392,67 161.88,68.925 158.78,72.026C158.284,72.522 157.811,73.038 157.36,73.575L157.36,72.355C157.36,71.36 156.553,70.553 155.558,70.553C154.562,70.553 153.756,71.36 153.756,72.355L153.756,80.722C153.731,81.016 153.731,81.311 153.756,81.605L153.756,83.153C151.487,82.424 149.072,82.024 146.563,82.024L146.56,82.024C140.268,82.024 134.351,84.475 129.902,88.923C125.451,93.373 123,99.29 123,105.584C123,117.141 129.426,138.998 153.746,139C154.237,139 154.727,138.972 155.205,138.913L157.852,139C182.172,139 188.598,117.142 188.598,105.584C188.597,92.59 178.028,82.021 165.036,82.021ZM161.328,74.572C163.934,71.966 166.631,70.601 167.947,70.601C168.075,70.601 168.149,70.614 168.178,70.61C168.394,71.248 167.55,74.147 164.227,77.472C161.621,80.078 158.926,81.442 157.611,81.442C157.504,81.442 157.431,81.433 157.398,81.433C157.39,81.433 157.384,81.433 157.38,81.434C157.359,81.376 157.359,81.28 157.358,81.186L157.358,81.043C157.443,79.993 158.454,77.447 161.328,74.572ZM157.911,135.395L155.179,135.304C155.16,135.303 155.139,135.303 155.119,135.303C155.038,135.303 154.957,135.309 154.876,135.32C154.502,135.37 154.124,135.395 153.746,135.395C132.32,135.393 126.604,116.654 126.604,105.583C126.604,100.251 128.68,95.239 132.449,91.471C136.218,87.702 141.23,85.626 146.562,85.626L146.563,85.626C157.566,85.626 166.519,94.579 166.519,105.583C166.519,108.897 166.321,112.283 165.945,115.374C165.825,116.363 166.529,117.26 167.516,117.381C168.518,117.514 169.403,116.797 169.522,115.81C169.914,112.576 170.122,109.04 170.122,105.583C170.122,97.594 166.125,90.521 160.027,86.259C161.651,85.839 163.328,85.626 165.036,85.626C176.041,85.626 184.993,94.579 184.993,105.583C184.993,116.654 179.277,135.394 157.911,135.395Z" style="fill:white;fill-rule:nonzero;"/>
    </g>
</svg>
